<?xml version="1.0" standalone="no"?>
<!DOCTYPE svg PUBLIC "-//W3C//DTD SVG 20010904//EN"
 "http://www.w3.org/TR/2001/REC-SVG-20010904/DTD/svg10.dtd">
<svg version="1.0" xmlns="http://www.w3.org/2000/svg"
 width="101.000000pt" height="87.000000pt" viewBox="0 0 101.000000 87.000000"
 preserveAspectRatio="xMidYMid meet">

<g transform="translate(0.000000,87.000000) scale(0.100000,-0.100000)"
fill="#000000" stroke="none">
<path d="M0 507 c0 -213 6 -246 43 -231 15 5 17 22 17 125 0 65 4 119 9 119 5
0 24 -19 42 -41 l33 -42 38 44 37 44 1 -116 c0 -94 3 -119 16 -130 12 -10 20
-10 35 -1 10 7 53 12 94 12 l75 0 0 35 0 35 -75 0 -75 0 0 140 0 140 45 0 c25
0 45 -3 45 -6 0 -3 -16 -25 -36 -49 -30 -37 -35 -50 -32 -86 l3 -43 62 74 c59
71 63 78 63 128 l0 52 -110 0 -110 0 0 -42 c0 -31 -8 -52 -32 -84 -18 -24 -37
-43 -43 -44 -5 0 -27 23 -47 51 -26 36 -38 62 -38 85 0 31 -3 34 -30 34 l-30
0 0 -203z"/>
<path d="M450 507 c0 -213 6 -246 43 -231 15 5 17 25 17 185 l0 179 50 0 c28
0 50 -3 50 -6 0 -3 -16 -24 -35 -47 -28 -33 -35 -49 -35 -83 0 -35 3 -42 15
-38 29 12 54 -36 55 -102 0 -67 16 -99 43 -88 14 5 17 20 17 90 0 78 -2 85
-30 117 -16 19 -30 39 -30 43 1 5 14 25 30 44 25 29 30 43 30 87 l0 53 -110 0
-110 0 0 -203z"/>
<path d="M680 675 c0 -34 1 -35 40 -35 l40 0 0 -168 c0 -128 3 -173 14 -187
12 -16 16 -17 30 -6 14 11 16 40 16 187 l0 174 40 0 c39 0 40 1 40 35 l0 35
-110 0 -110 0 0 -35z"/>
</g>
</svg>
