<svg width="191.2363525390625px" height="94.39999999999999px" xmlns="http://www.w3.org/2000/svg" viewBox="154.38182373046874 27.800000000000004 191.2363525390625 94.39999999999999" style="background: rgb(255, 255, 255);" preserveAspectRatio="xMidYMid"><defs><filter id="editing-extrusion" x="-100%" y="-100%" width="300%" height="300%"><feFlood result="color1" flood-color="#b8d5ea"></feFlood><feConvolveMatrix order="4,4" divisor="1" kernelMatrix="1 0 0 0 0 1 0 0 0 0 1 0 0 0 0 1" in="SourceAlpha" result="extrude"></feConvolveMatrix><feComposite in="color1" in2="extrude" result="comp-extrude" operator="in"></feComposite><feOffset dx="2" dy="2" in="comp-extrude" result="offset-extrude"></feOffset><feMerge><feMergeNode in="offset-extrude"></feMergeNode><feMergeNode in="SourceGraphic"></feMergeNode></feMerge></filter></defs><g filter="url(#editing-extrusion)"><g transform="translate(188.4992517232895, 91.4950008392334)"><path d="M4.79 0L-0.61 0L7.90-31.02L17.72-31.02L19.88-13.30L28.62-31.02L36.85-31.02L37.69-7.80L37.69-7.80Q37.88-3.20 40.14-1.79L40.14-1.79L40.14-1.79Q39.62-0.85 38.12 0.05L38.12 0.05L38.12 0.05Q36.61 0.94 34.62 0.94L34.62 0.94L34.62 0.94Q32.62 0.94 31.44 0.38L31.44 0.38L31.44 0.38Q30.27-0.19 29.61-1.13L29.61-1.13L29.61-1.13Q28.43-2.82 28.43-6.06L28.43-6.06L28.43-20.59L19.18 0L13.35 0L10.06-21.10L4.79 0ZM62.23-7.24L62.23-7.24L62.23-7.24Q63.12-6.11 63.12-4.28L63.12-4.28L63.12-4.28Q63.12-1.74 61.24-0.40L61.24-0.40L61.24-0.40Q59.36 0.94 56.40 0.94L56.40 0.94L56.40 0.94Q54.71 0.94 52.12 0.56L52.12 0.56L52.12 0.56Q47.05-0.23 45.50-0.23L45.50-0.23L45.50-0.23Q43.95-0.23 43.33-0.16L43.33-0.16L43.33-0.16Q42.72-0.09 41.74 0L41.74 0L47.52-31.02L67.77-31.02L67.77-31.02Q67.77-28.15 66.39-26.65L66.39-26.65L66.39-26.65Q65.00-25.14 62.27-25.14L62.27-25.14L62.27-25.14Q59.55-25.14 56.78-26.41L56.78-26.41L55.32-18.19L63.69-18.19L63.69-18.19Q63.69-15.70 62.46-14.31L62.46-14.31L62.46-14.31Q61.24-12.93 59.20-12.93L59.20-12.93L59.20-12.93Q57.15-12.93 55.88-13.39L55.88-13.39L55.88-13.39Q54.61-13.87 54.47-14.01L54.47-14.01L52.78-5.12L52.78-5.12Q53.91-4.98 56.02-4.98L56.02-4.98L56.02-4.98Q59.64-4.98 62.23-7.24ZM77.08 0L67.02 0L72.76-30.88L72.76-30.88Q77.41-31.40 84.20-31.40L84.20-31.40L84.20-31.40Q90.99-31.40 94.14-29.42L94.14-29.42L94.14-29.42Q97.29-27.45 97.29-23.48L97.29-23.48L97.29-23.48Q97.29-19.50 95.25-17.01L95.25-17.01L95.25-17.01Q93.20-14.52 89.68-13.72L89.68-13.72L89.68-13.72Q90.47-9.82 92.31-6.67L92.31-6.67L92.31-6.67Q94-3.71 95.97-2.77L95.97-2.77L95.97-2.77Q95.27-0.80 93.84 0.07L93.84 0.07L93.84 0.07Q92.40 0.94 90.36 0.94L90.36 0.94L90.36 0.94Q88.31 0.94 86.72-0.26L86.72-0.26L86.72-0.26Q85.12-1.46 83.85-3.67L83.85-3.67L83.85-3.67Q81.17-8.46 80.89-16.03L80.89-16.03L81.22-16.03L81.22-16.03Q84.69-16.12 86.43-17.93L86.43-17.93L86.43-17.93Q88.17-19.74 88.17-23.55L88.17-23.55L88.17-23.55Q88.17-28.29 84.18-28.48L84.18-28.48L83.14-28.48L83.14-28.48Q82.72-28.48 82.48-28.43L82.48-28.43L77.08 0ZM103.21-22.89L103.21-22.89L103.21-22.89Q101.61-24.11 101.61-26.72L101.61-26.72L101.61-26.72Q101.61-29.33 103.33-30.69L103.33-30.69L103.33-30.69Q105.04-32.05 108.01-32.05L108.01-32.05L108.01-32.05Q109.89-32.05 114.35-31.40L114.35-31.40L117.55-30.93L117.55-30.93Q119.14-30.74 120.81-30.74L120.81-30.74L120.81-30.74Q122.48-30.74 123.61-31.44L123.61-31.44L123.61-31.44Q125.30-29.94 125.30-27.78L125.30-27.78L125.30-27.78Q125.30-25.61 123.38-24.06L123.38-24.06L123.38-24.06Q121.40-22.42 118.86-22.42L118.86-22.42L118.86-22.42Q117.64-22.42 115.67-22.75L115.67-22.75L115.67-22.75Q113.36-15.51 113.36-10.48L113.36-10.48L113.36-10.48Q113.36-5.45 115.90-2.82L115.90-2.82L115.90-2.82Q114.73-0.70 112.99 0.12L112.99 0.12L112.99 0.12Q111.25 0.94 108.64 0.94L108.64 0.94L108.64 0.94Q106.03 0.94 104.41-0.49L104.41-0.49L104.41-0.49Q102.79-1.93 102.79-4.89L102.79-4.89L102.79-4.89Q102.79-8.32 104.67-13.96L104.67-13.96L104.67-13.96Q106.55-19.55 109.37-23.83L109.37-23.83L109.37-23.83Q108.01-23.97 106.60-23.97L106.60-23.97L106.60-23.97Q103.68-23.97 103.21-22.89Z" fill="#3387ce"></path></g></g><style>text {
  font-size: 64px;
  font-family: Arial Black;
  dominant-baseline: central;
  text-anchor: middle;
}</style></svg>